<?xml version="1.0" encoding="utf-8"?>
<!-- Generator: Adobe Illustrator 16.0.0, SVG Export Plug-In . SVG Version: 6.00 Build 0)  -->
<!DOCTYPE svg PUBLIC "-//W3C//DTD SVG 1.1//EN" "http://www.w3.org/Graphics/SVG/1.1/DTD/svg11.dtd">
<svg version="1.1" id="Layer_1" xmlns="http://www.w3.org/2000/svg" xmlns:xlink="http://www.w3.org/1999/xlink" x="0px" y="0px"
	 width="430.328px" height="235.417px" viewBox="0 0 430.328 235.417" enable-background="new 0 0 430.328 235.417"
	 xml:space="preserve">
<rect x="3.007" y="3.038" stroke="#000000" stroke-width="6" stroke-miterlimit="10" width="2" height="64.071"/>
<rect x="3.007" y="3.038" stroke="#000000" stroke-width="6" stroke-miterlimit="10" width="22.199" height="2"/>
<rect x="3.007" y="29.46" stroke="#000000" stroke-width="6" stroke-miterlimit="10" width="22.199" height="2"/>
<rect x="79.804" y="85.859" stroke="#000000" stroke-width="6" stroke-miterlimit="10" width="21.199" height="2"/>
<rect x="3.007" y="69.798" stroke="#000000" stroke-width="6" stroke-miterlimit="10" width="2" height="6.162"/>
<rect x="3.007" y="96.067" stroke="#000000" stroke-width="6" stroke-miterlimit="10" width="2" height="6.793"/>
<rect x="3.007" y="120.55" stroke="#000000" stroke-width="6" stroke-miterlimit="10" width="2" height="17.102"/>
<rect x="41.405" y="88.96" stroke="#000000" stroke-width="6" stroke-miterlimit="10" width="2" height="33.066"/>
<rect x="60.604" y="96.377" stroke="#000000" stroke-width="6" stroke-miterlimit="10" width="2" height="16.532"/>
<rect x="60.604" y="158.718" stroke="#000000" stroke-width="6" stroke-miterlimit="10" width="2" height="14.949"/>
<rect x="41.405" y="142.192" stroke="#000000" stroke-width="6" stroke-miterlimit="10" width="2" height="17.051"/>
<rect x="3.007" y="155.511" stroke="#000000" stroke-width="6" stroke-miterlimit="10" width="2" height="4.898"/>
<rect x="3.007" y="177.177" stroke="#000000" stroke-width="6" stroke-miterlimit="10" width="2" height="4.9"/>
<rect x="175.8" y="113.197" stroke="#000000" stroke-width="6" stroke-miterlimit="10" width="2" height="17.103"/>
<rect x="175.8" y="147.157" stroke="#000000" stroke-width="6" stroke-miterlimit="10" width="2" height="4.9"/>
<rect x="175.8" y="170.823" stroke="#000000" stroke-width="6" stroke-miterlimit="10" width="2" height="4.9"/>
<rect x="175.8" y="193.192" stroke="#000000" stroke-width="6" stroke-miterlimit="10" width="2" height="11.697"/>
<rect x="194.999" y="94.442" stroke="#000000" stroke-width="6" stroke-miterlimit="10" width="2" height="29.352"/>
<rect x="194.999" y="140.653" stroke="#000000" stroke-width="6" stroke-miterlimit="10" width="2" height="13.539"/>
<rect x="194.999" y="170.319" stroke="#000000" stroke-width="6" stroke-miterlimit="10" width="2" height="4.9"/>
<rect x="194.999" y="191.688" stroke="#000000" stroke-width="6" stroke-miterlimit="10" width="2" height="5.848"/>
<rect x="41.405" y="183.667" stroke="#000000" stroke-width="6" stroke-miterlimit="10" width="2" height="4.9"/>
<rect x="310.194" y="137.653" stroke="#000000" stroke-width="6" stroke-miterlimit="10" width="2" height="13.176"/>
<rect x="329.394" y="102.692" stroke="#000000" stroke-width="6" stroke-miterlimit="10" width="2" height="13.177"/>
<rect x="310.194" y="168.995" stroke="#000000" stroke-width="6" stroke-miterlimit="10" width="2" height="17.051"/>
<rect x="310.194" y="202.47" stroke="#000000" stroke-width="6" stroke-miterlimit="10" width="2" height="4.9"/>
<rect x="329.394" y="129.202" stroke="#000000" stroke-width="6" stroke-miterlimit="10" width="2" height="4.9"/>
<rect x="310.194" y="118.064" stroke="#000000" stroke-width="6" stroke-miterlimit="10" width="2" height="4.9"/>
<rect x="60.604" y="195.167" stroke="#000000" stroke-width="6" stroke-miterlimit="10" width="2" height="4.9"/>
<rect x="61.604" y="222.983" stroke="#000000" stroke-width="6" stroke-miterlimit="10" width="2" height="9.495"/>
<rect x="60.604" y="132.202" stroke="#000000" stroke-width="6" stroke-miterlimit="10" width="2" height="4.9"/>
<rect x="41.405" y="3.038" stroke="#000000" stroke-width="6" stroke-miterlimit="10" width="2" height="69.611"/>
<rect x="60.604" y="5.32" stroke="#000000" stroke-width="6" stroke-miterlimit="10" width="2" height="73.465"/>
<rect x="41.405" y="3.038" stroke="#000000" stroke-width="6" stroke-miterlimit="10" width="21.199" height="2"/>
<rect x="42.405" y="29.46" stroke="#000000" stroke-width="6" stroke-miterlimit="10" width="18.199" height="2"/>
<rect x="79.804" y="3.037" stroke="#000000" stroke-width="6" stroke-miterlimit="10" width="2" height="84.822"/>
<rect x="118.202" y="85.859" stroke="#000000" stroke-width="6" stroke-miterlimit="10" width="21.199" height="2"/>
<rect x="175.8" y="3.037" stroke="#000000" stroke-width="6" stroke-miterlimit="10" width="21.199" height="2"/>
<rect x="214.067" y="3.037" stroke="#000000" stroke-width="6" stroke-miterlimit="10" width="21.199" height="2"/>
<rect x="227.078" y="59.607" stroke="#000000" stroke-width="6" stroke-miterlimit="10" width="8.188" height="2"/>
<rect x="271.671" y="3.038" stroke="#000000" stroke-width="6" stroke-miterlimit="10" width="21.199" height="2"/>
<rect x="271.671" y="27.438" stroke="#000000" stroke-width="6" stroke-miterlimit="10" width="21.199" height="2"/>
<rect x="310.194" y="27.46" stroke="#000000" stroke-width="6" stroke-miterlimit="10" width="21.199" height="2"/>
<rect x="367.792" y="3.038" stroke="#000000" stroke-width="6" stroke-miterlimit="10" width="21.199" height="2"/>
<rect x="367.792" y="85.859" stroke="#000000" stroke-width="6" stroke-miterlimit="10" width="21.199" height="2"/>
<rect x="367.792" y="27.46" stroke="#000000" stroke-width="6" stroke-miterlimit="10" width="11.6" height="2"/>
<rect x="271.671" y="85.859" stroke="#000000" stroke-width="6" stroke-miterlimit="10" width="21.199" height="2"/>
<rect x="214.067" y="85.859" stroke="#000000" stroke-width="6" stroke-miterlimit="10" width="21.199" height="2"/>
<rect x="118.202" y="3.037" stroke="#000000" stroke-width="6" stroke-miterlimit="10" width="2" height="84.822"/>
<rect x="156.601" y="3.037" stroke="#000000" stroke-width="6" stroke-miterlimit="10" width="2" height="68.405"/>
<rect x="156.601" y="93.358" stroke="#000000" stroke-width="6" stroke-miterlimit="10" width="2" height="25.436"/>
<rect x="156.601" y="139.114" stroke="#000000" stroke-width="6" stroke-miterlimit="10" width="2" height="18.578"/>
<rect x="156.601" y="183.614" stroke="#000000" stroke-width="6" stroke-miterlimit="10" width="2" height="10.328"/>
<rect x="348.593" y="3.038" stroke="#000000" stroke-width="6" stroke-miterlimit="10" width="2" height="68.405"/>
<rect x="348.593" y="87.359" stroke="#000000" stroke-width="6" stroke-miterlimit="10" width="2" height="32.156"/>
<rect x="348.593" y="135.114" stroke="#000000" stroke-width="6" stroke-miterlimit="10" width="2" height="18.578"/>
<rect x="348.593" y="171.614" stroke="#000000" stroke-width="6" stroke-miterlimit="10" width="2" height="10.328"/>
<rect x="175.8" y="3.037" stroke="#000000" stroke-width="6" stroke-miterlimit="10" width="2" height="89.655"/>
<rect x="214.198" y="3.037" stroke="#000000" stroke-width="6" stroke-miterlimit="10" width="2" height="84.822"/>
<rect x="367.792" y="3.037" stroke="#000000" stroke-width="6" stroke-miterlimit="10" width="2" height="84.822"/>
<rect x="233.397" y="59.607" stroke="#000000" stroke-width="6" stroke-miterlimit="10" width="2" height="28.252"/>
<rect x="271.671" y="3.037" stroke="#000000" stroke-width="6" stroke-miterlimit="10" width="2" height="26.424"/>
<rect x="290.87" y="29.438" stroke="#000000" stroke-width="6" stroke-miterlimit="10" width="2" height="58.421"/>
<rect x="406.19" y="2.861" stroke="#000000" stroke-width="6" stroke-miterlimit="10" width="21.199" height="2"/>
<rect x="406.19" y="27.261" stroke="#000000" stroke-width="6" stroke-miterlimit="10" width="21.199" height="2"/>
<rect x="406.19" y="85.682" stroke="#000000" stroke-width="6" stroke-miterlimit="10" width="21.199" height="2"/>
<rect x="406.19" y="2.86" stroke="#000000" stroke-width="6" stroke-miterlimit="10" width="2" height="26.424"/>
<rect x="425.39" y="29.261" stroke="#000000" stroke-width="6" stroke-miterlimit="10" width="2" height="58.421"/>
<rect x="310.194" y="3.038" stroke="#000000" stroke-width="6" stroke-miterlimit="10" width="2" height="98.404"/>
<rect x="329.394" y="29.438" stroke="#000000" stroke-width="6" stroke-miterlimit="10" width="2" height="58.421"/>
<rect x="194.999" y="3.037" stroke="#000000" stroke-width="6" stroke-miterlimit="10" width="2" height="74.155"/>
<rect x="322.794" y="3.038" stroke="#000000" stroke-width="6" stroke-miterlimit="10" width="2" height="26.4"/>
</svg>
